<svg xmlns="http://www.w3.org/2000/svg" width="1280" height="320" viewBox="0 0 1280 320" role="img" aria-label="OpenCode Go Model Picker banner">
  <defs>
    <linearGradient id="bg" x1="0" y1="0" x2="1" y2="1">
      <stop offset="0" stop-color="#1B1918"/>
      <stop offset="1" stop-color="#2E2A28"/>
    </linearGradient>
    <pattern id="grid" width="40" height="40" patternUnits="userSpaceOnUse">
      <path d="M40 0H0V40" fill="none" stroke="#F1ECEC" stroke-opacity="0.05"/>
    </pattern>
    <linearGradient id="accent" x1="0" y1="0" x2="1" y2="0">
      <stop offset="0" stop-color="#03B000"/>
      <stop offset="1" stop-color="#03B000" stop-opacity="0"/>
    </linearGradient>
  </defs>
  <rect width="1280" height="320" fill="url(#bg)"/>
  <rect width="1280" height="320" fill="url(#grid)"/>
  <g transform="translate(80,96)">
    <rect x="0" y="0" width="128" height="128" rx="28" fill="#0F0E0E" fill-opacity="0.5"/>
    <rect x="22" y="34" width="58" height="13" rx="6.5" fill="#F1ECEC"/>
    <rect x="22" y="53.5" width="58" height="13" rx="6.5" fill="#B7B1B1"/>
    <rect x="22" y="73" width="58" height="13" rx="6.5" fill="#8E8B8B"/>
    <circle cx="96" cy="40.5" r="7" fill="#03B000"/>
    <circle cx="96" cy="40.5" r="2.6" fill="#0F0E0E"/>
  </g>
  <rect x="257.04" y="93.04" width="5.92" height="5.92" rx="1.07" fill="#F1ECEC"/><rect x="265.04" y="93.04" width="5.92" height="5.92" rx="1.07" fill="#F1ECEC"/><rect x="273.04" y="93.04" width="5.92" height="5.92" rx="1.07" fill="#F1ECEC"/><rect x="249.04" y="101.04" width="5.92" height="5.92" rx="1.07" fill="#F1ECEC"/><rect x="281.04" y="101.04" width="5.92" height="5.92" rx="1.07" fill="#F1ECEC"/><rect x="249.04" y="109.04" width="5.92" height="5.92" rx="1.07" fill="#F1ECEC"/><rect x="281.04" y="109.04" width="5.92" height="5.92" rx="1.07" fill="#F1ECEC"/><rect x="249.04" y="117.04" width="5.92" height="5.92" rx="1.07" fill="#F1ECEC"/><rect x="281.04" y="117.04" width="5.92" height="5.92" rx="1.07" fill="#F1ECEC"/><rect x="249.04" y="125.04" width="5.92" height="5.92" rx="1.07" fill="#F1ECEC"/><rect x="281.04" y="125.04" width="5.92" height="5.92" rx="1.07" fill="#F1ECEC"/><rect x="249.04" y="133.04" width="5.92" height="5.92" rx="1.07" fill="#F1ECEC"/><rect x="281.04" y="133.04" width="5.92" height="5.92" rx="1.07" fill="#F1ECEC"/><rect x="257.04" y="141.04" width="5.92" height="5.92" rx="1.07" fill="#F1ECEC"/><rect x="265.04" y="141.04" width="5.92" height="5.92" rx="1.07" fill="#F1ECEC"/><rect x="273.04" y="141.04" width="5.92" height="5.92" rx="1.07" fill="#F1ECEC"/><rect x="297.04" y="101.04" width="5.92" height="5.92" rx="1.07" fill="#F1ECEC"/><rect x="305.04" y="101.04" width="5.92" height="5.92" rx="1.07" fill="#F1ECEC"/><rect x="313.04" y="101.04" width="5.92" height="5.92" rx="1.07" fill="#F1ECEC"/><rect x="321.04" y="101.04" width="5.92" height="5.92" rx="1.07" fill="#F1ECEC"/><rect x="297.04" y="109.04" width="5.92" height="5.92" rx="1.07" fill="#F1ECEC"/><rect x="329.04" y="109.04" width="5.92" height="5.92" rx="1.07" fill="#F1ECEC"/><rect x="297.04" y="117.04" width="5.92" height="5.92" rx="1.07" fill="#F1ECEC"/><rect x="329.04" y="117.04" width="5.92" height="5.92" rx="1.07" fill="#F1ECEC"/><rect x="297.04" y="125.04" width="5.92" height="5.92" rx="1.07" fill="#F1ECEC"/><rect x="305.04" y="125.04" width="5.92" height="5.92" rx="1.07" fill="#F1ECEC"/><rect x="313.04" y="125.04" width="5.92" height="5.92" rx="1.07" fill="#F1ECEC"/><rect x="321.04" y="125.04" width="5.92" height="5.92" rx="1.07" fill="#F1ECEC"/><rect x="297.04" y="133.04" width="5.92" height="5.92" rx="1.07" fill="#F1ECEC"/><rect x="297.04" y="141.04" width="5.92" height="5.92" rx="1.07" fill="#F1ECEC"/><rect x="353.04" y="101.04" width="5.92" height="5.92" rx="1.07" fill="#F1ECEC"/><rect x="361.04" y="101.04" width="5.92" height="5.92" rx="1.07" fill="#F1ECEC"/><rect x="369.04" y="101.04" width="5.92" height="5.92" rx="1.07" fill="#F1ECEC"/><rect x="345.04" y="109.04" width="5.92" height="5.92" rx="1.07" fill="#F1ECEC"/><rect x="377.04" y="109.04" width="5.92" height="5.92" rx="1.07" fill="#F1ECEC"/><rect x="345.04" y="117.04" width="5.92" height="5.92" rx="1.07" fill="#F1ECEC"/><rect x="353.04" y="117.04" width="5.92" height="5.92" rx="1.07" fill="#F1ECEC"/><rect x="361.04" y="117.04" width="5.92" height="5.92" rx="1.07" fill="#F1ECEC"/><rect x="369.04" y="117.04" width="5.92" height="5.92" rx="1.07" fill="#F1ECEC"/><rect x="377.04" y="117.04" width="5.92" height="5.92" rx="1.07" fill="#F1ECEC"/><rect x="345.04" y="125.04" width="5.92" height="5.92" rx="1.07" fill="#F1ECEC"/><rect x="353.04" y="133.04" width="5.92" height="5.92" rx="1.07" fill="#F1ECEC"/><rect x="361.04" y="133.04" width="5.92" height="5.92" rx="1.07" fill="#F1ECEC"/><rect x="369.04" y="133.04" width="5.92" height="5.92" rx="1.07" fill="#F1ECEC"/><rect x="393.04" y="109.04" width="5.92" height="5.92" rx="1.07" fill="#F1ECEC"/><rect x="409.04" y="109.04" width="5.92" height="5.92" rx="1.07" fill="#F1ECEC"/><rect x="417.04" y="109.04" width="5.92" height="5.92" rx="1.07" fill="#F1ECEC"/><rect x="393.04" y="117.04" width="5.92" height="5.92" rx="1.07" fill="#F1ECEC"/><rect x="401.04" y="117.04" width="5.92" height="5.92" rx="1.07" fill="#F1ECEC"/><rect x="425.04" y="117.04" width="5.92" height="5.92" rx="1.07" fill="#F1ECEC"/><rect x="393.04" y="125.04" width="5.92" height="5.92" rx="1.07" fill="#F1ECEC"/><rect x="425.04" y="125.04" width="5.92" height="5.92" rx="1.07" fill="#F1ECEC"/><rect x="393.04" y="133.04" width="5.92" height="5.92" rx="1.07" fill="#F1ECEC"/><rect x="425.04" y="133.04" width="5.92" height="5.92" rx="1.07" fill="#F1ECEC"/><rect x="393.04" y="141.04" width="5.92" height="5.92" rx="1.07" fill="#F1ECEC"/><rect x="425.04" y="141.04" width="5.92" height="5.92" rx="1.07" fill="#F1ECEC"/><rect x="449.04" y="93.04" width="5.92" height="5.92" rx="1.07" fill="#F1ECEC"/><rect x="457.04" y="93.04" width="5.92" height="5.92" rx="1.07" fill="#F1ECEC"/><rect x="465.04" y="93.04" width="5.92" height="5.92" rx="1.07" fill="#F1ECEC"/><rect x="441.04" y="101.04" width="5.92" height="5.92" rx="1.07" fill="#F1ECEC"/><rect x="473.04" y="101.04" width="5.92" height="5.92" rx="1.07" fill="#F1ECEC"/><rect x="441.04" y="109.04" width="5.92" height="5.92" rx="1.07" fill="#F1ECEC"/><rect x="441.04" y="117.04" width="5.92" height="5.92" rx="1.07" fill="#F1ECEC"/><rect x="441.04" y="125.04" width="5.92" height="5.92" rx="1.07" fill="#F1ECEC"/><rect x="441.04" y="133.04" width="5.92" height="5.92" rx="1.07" fill="#F1ECEC"/><rect x="473.04" y="133.04" width="5.92" height="5.92" rx="1.07" fill="#F1ECEC"/><rect x="449.04" y="141.04" width="5.92" height="5.92" rx="1.07" fill="#F1ECEC"/><rect x="457.04" y="141.04" width="5.92" height="5.92" rx="1.07" fill="#F1ECEC"/><rect x="465.04" y="141.04" width="5.92" height="5.92" rx="1.07" fill="#F1ECEC"/><rect x="497.04" y="109.04" width="5.92" height="5.92" rx="1.07" fill="#F1ECEC"/><rect x="505.04" y="109.04" width="5.92" height="5.92" rx="1.07" fill="#F1ECEC"/><rect x="513.04" y="109.04" width="5.92" height="5.92" rx="1.07" fill="#F1ECEC"/><rect x="489.04" y="117.04" width="5.92" height="5.92" rx="1.07" fill="#F1ECEC"/><rect x="521.04" y="117.04" width="5.92" height="5.92" rx="1.07" fill="#F1ECEC"/><rect x="489.04" y="125.04" width="5.92" height="5.92" rx="1.07" fill="#F1ECEC"/><rect x="521.04" y="125.04" width="5.92" height="5.92" rx="1.07" fill="#F1ECEC"/><rect x="489.04" y="133.04" width="5.92" height="5.92" rx="1.07" fill="#F1ECEC"/><rect x="521.04" y="133.04" width="5.92" height="5.92" rx="1.07" fill="#F1ECEC"/><rect x="497.04" y="141.04" width="5.92" height="5.92" rx="1.07" fill="#F1ECEC"/><rect x="505.04" y="141.04" width="5.92" height="5.92" rx="1.07" fill="#F1ECEC"/><rect x="513.04" y="141.04" width="5.92" height="5.92" rx="1.07" fill="#F1ECEC"/><rect x="569.04" y="93.04" width="5.92" height="5.92" rx="1.07" fill="#F1ECEC"/><rect x="569.04" y="101.04" width="5.92" height="5.92" rx="1.07" fill="#F1ECEC"/><rect x="545.04" y="109.04" width="5.92" height="5.92" rx="1.07" fill="#F1ECEC"/><rect x="553.04" y="109.04" width="5.92" height="5.92" rx="1.07" fill="#F1ECEC"/><rect x="561.04" y="109.04" width="5.92" height="5.92" rx="1.07" fill="#F1ECEC"/><rect x="569.04" y="109.04" width="5.92" height="5.92" rx="1.07" fill="#F1ECEC"/><rect x="537.04" y="117.04" width="5.92" height="5.92" rx="1.07" fill="#F1ECEC"/><rect x="569.04" y="117.04" width="5.92" height="5.92" rx="1.07" fill="#F1ECEC"/><rect x="537.04" y="125.04" width="5.92" height="5.92" rx="1.07" fill="#F1ECEC"/><rect x="569.04" y="125.04" width="5.92" height="5.92" rx="1.07" fill="#F1ECEC"/><rect x="537.04" y="133.04" width="5.92" height="5.92" rx="1.07" fill="#F1ECEC"/><rect x="569.04" y="133.04" width="5.92" height="5.92" rx="1.07" fill="#F1ECEC"/><rect x="545.04" y="141.04" width="5.92" height="5.92" rx="1.07" fill="#F1ECEC"/><rect x="553.04" y="141.04" width="5.92" height="5.92" rx="1.07" fill="#F1ECEC"/><rect x="561.04" y="141.04" width="5.92" height="5.92" rx="1.07" fill="#F1ECEC"/><rect x="569.04" y="141.04" width="5.92" height="5.92" rx="1.07" fill="#F1ECEC"/><rect x="593.04" y="101.04" width="5.92" height="5.92" rx="1.07" fill="#F1ECEC"/><rect x="601.04" y="101.04" width="5.92" height="5.92" rx="1.07" fill="#F1ECEC"/><rect x="609.04" y="101.04" width="5.92" height="5.92" rx="1.07" fill="#F1ECEC"/><rect x="585.04" y="109.04" width="5.92" height="5.92" rx="1.07" fill="#F1ECEC"/><rect x="617.04" y="109.04" width="5.92" height="5.92" rx="1.07" fill="#F1ECEC"/><rect x="585.04" y="117.04" width="5.92" height="5.92" rx="1.07" fill="#F1ECEC"/><rect x="593.04" y="117.04" width="5.92" height="5.92" rx="1.07" fill="#F1ECEC"/><rect x="601.04" y="117.04" width="5.92" height="5.92" rx="1.07" fill="#F1ECEC"/><rect x="609.04" y="117.04" width="5.92" height="5.92" rx="1.07" fill="#F1ECEC"/><rect x="617.04" y="117.04" width="5.92" height="5.92" rx="1.07" fill="#F1ECEC"/><rect x="585.04" y="125.04" width="5.92" height="5.92" rx="1.07" fill="#F1ECEC"/><rect x="593.04" y="133.04" width="5.92" height="5.92" rx="1.07" fill="#F1ECEC"/><rect x="601.04" y="133.04" width="5.92" height="5.92" rx="1.07" fill="#F1ECEC"/><rect x="609.04" y="133.04" width="5.92" height="5.92" rx="1.07" fill="#F1ECEC"/>
  <text x="648" y="148" font-family="Georgia, 'Times New Roman', 'Nimbus Roman', 'Liberation Serif', serif" font-size="80" fill="#FF6900">Go</text>
  <text x="248" y="220" font-family="Georgia, 'Times New Roman', 'Nimbus Roman', 'Liberation Serif', serif" font-size="80" fill="#03B000">Model Picker</text>
  <text x="250" y="248" font-family="Georgia, 'Times New Roman', 'Nimbus Roman', 'Liberation Serif', serif" font-size="24" fill="#B7B1B1">Plan-aware model selection for oh-my-opencode-slim agents</text>
  <rect x="250" y="264" width="360" height="3" rx="1.5" fill="url(#accent)"/>
  <text x="250" y="296" font-family="Georgia, 'Times New Roman', 'Nimbus Roman', 'Liberation Serif', serif" font-size="19" fill="#8E8B8B">read-only . source-cited . fallback-ready</text>
  <g opacity="0.55">
    <rect x="1060" y="102" width="150" height="14" rx="7" fill="#4B4646"/>
    <rect x="1060" y="132" width="150" height="14" rx="7" fill="#3A3634"/>
    <rect x="1060" y="162" width="150" height="14" rx="7" fill="#2E2A28"/>
    <circle cx="1196" cy="109" r="7" fill="#03B000"/>
  </g>
</svg>
